<?xml version="1.0" encoding="utf-8"?>
<svg viewBox="0 0 500 500" xmlns="http://www.w3.org/2000/svg">
  <path d="M8.00645 11.3016L8.00637 11.3016L8.00279 11.305L7.9966 11.3109L7.98611 11.3018L7.98604 11.3017C6.27421 9.8204 4.85966 8.59596 3.87216 7.49453C2.88329 6.39158 2.3398 5.43014 2.3398 4.47652C2.3398 3.16287 3.37051 2.17325 4.7598 2.17325C5.83254 2.17325 6.87305 2.83937 7.23763 3.73157L7.26304 3.79374H7.3302H8.6694H8.73657L8.76197 3.73157C9.12655 2.83937 10.1671 2.17325 11.2398 2.17325C12.6291 2.17325 13.6598 3.16287 13.6598 4.47652C13.6598 5.43012 13.1163 6.39156 12.1266 7.4945C11.1382 8.59591 9.72186 9.82036 8.00645 11.3016ZM7.9998 1.98089C7.19582 1.13432 6.00223 0.599951 4.7598 0.599951C2.49162 0.599951 0.699805 2.29501 0.699805 4.47652C0.699805 5.80531 1.329 7.00551 2.41138 8.26838C3.49282 9.53017 5.03843 10.8677 6.89039 12.4692L7.93425 13.3755L7.9998 13.4324L8.06536 13.3755L9.10922 12.4692C10.9612 10.8677 12.5068 9.53017 13.5882 8.26838C14.6706 7.00551 15.2998 5.80531 15.2998 4.47652C15.2998 2.29501 13.508 0.599951 11.2398 0.599951C9.99738 0.599951 8.80379 1.13432 7.9998 1.98089Z" fill="#828282" stroke="#828282" stroke-width="0.2" transform="matrix(1, 0, 0, 1, 203.351057, 177.435488)"/>
  <path fill="rgb(255,0,0)" stroke="rgb(255,0,0)" stroke-width="0" opacity="0.9803921568627451" d="M 207.085 178.881 C 207.714 178.786 208.754 178.852 209.385 179.111 C 209.956 179.345 210.283 180.226 210.765 180.261 C 211.242 180.296 211.639 179.538 212.26 179.341 C 213.004 179.106 214.201 178.944 215.019 179.111 C 215.778 179.266 216.617 179.624 217.032 180.204 C 217.466 180.811 217.52 182.002 217.492 182.733 C 217.468 183.349 217.366 183.752 217.032 184.343 C 216.579 185.144 215.315 186.462 214.674 187.046 C 214.245 187.437 213.86 187.468 213.582 187.793 C 213.303 188.119 213.376 188.682 213.007 189 C 212.542 189.402 211.524 189.915 210.765 189.805 C 209.917 189.683 208.799 188.83 208.178 188.023 C 207.539 187.194 207.281 185.259 207.028 184.861 C 206.933 184.712 206.92 184.791 206.798 184.688 C 206.54 184.47 205.725 183.969 205.418 183.423 C 205.088 182.838 204.878 181.913 204.958 181.239 C 205.034 180.596 205.427 179.85 205.82 179.456 C 206.162 179.114 206.572 178.959 207.085 178.881 Z" style="fill: rgb(130, 130, 130); fill-opacity: 1; fill-rule: nonzero; stroke: rgb(130, 130, 130); stroke-dasharray: none; stroke-dashoffset: 0px; stroke-linecap: butt; stroke-linejoin: miter; stroke-miterlimit: 4; stroke-opacity: 1; stroke-width: 0.2px; paint-order: normal; vector-effect: none; opacity: 1; mix-blend-mode: normal; isolation: auto;"/>
</svg>